{
  "source": "C:\\Users\\Peter\\Desktop\\stuff\\MIUN\\quantitative_research\\video_compression\\videos\\BVI-HD\\BVI-HD_CDVL_videos\\ORIG\\Toys_1920x1080_30fps.mp4",
  "output": "C:\\Users\\Peter\\Desktop\\stuff\\MIUN\\quantitative_research\\video_compression\\compressed_videos\\BVI-HD\\av1\\8\\Toys_1920x1080_30fps_av1.mkv",
  "codec": "av1",
  "ok": "Input #0, mov,mp4,m4a,3gp,3g2,mj2, from 'C:\\Users\\Peter\\Desktop\\stuff\\MIUN\\quantitative_research\\video_compression\\videos\\BVI-HD\\BVI-HD_CDVL_videos\\ORIG\\Toys_1920x1080_30fps.mp4':\n  Metadata:\n    major_brand     : isom\n    minor_version   : 512\n    compatible_brands: isomiso2avc1mp41\n    encoder         : Lavf54.28.101\n  Duration: 00:00:05.00, start: 0.000000, bitrate: 270887 kb/s\n  Stream #0:0[0x1](und): Video: h264 (High 4:4:4 Predictive) (avc1 / 0x31637661), yuv420p(progressive), 1920x1080, 270883 kb/s, 30 fps, 30 tbr, 30 tbn (default)\n    Metadata:\n      handler_name    : VideoHandler\n      vendor_id       : [0][0][0][0]\n[out#0/matroska @ 00000175f5b80c00] Codec AVOption b:a (set bitrate (in bits/s)) has not been used for any stream. The most likely reason is either wrong type (e.g. a video option with no video streams) or that it is a private option of some decoder which was not actually used for any stream.\nStream mapping:\n  Stream #0:0 -> #0:0 (h264 (native) -> av1 (libsvtav1))\nPress [q] to stop, [?] for help\nSvt[info]: -------------------------------------------\nSvt[info]: SVT [version]:\tSVT-AV1 Encoder Lib v3.1.0-19-g6ecfe8ec\nSvt[info]: SVT [build]  :\tGCC 15.2.0\t 64 bit\nSvt[info]: LIB Build date: Aug 17 2025 11:37:13\nSvt[info]: -------------------------------------------\nSvt[info]: Level of Parallelism: 5\nSvt[info]: Number of PPCS 93\nSvt[info]: [asm level on system : up to avx2]\nSvt[info]: [asm level selected : up to avx2]\nSvt[info]: -------------------------------------------\nSvt[info]: SVT [config]: main profile\ttier (auto)\tlevel (auto)\nSvt[info]: SVT [config]: width / height / fps numerator / fps denominator \t\t: 1920 / 1080 / 30 / 1\nSvt[info]: SVT [config]: bit-depth / color format \t\t\t\t\t: 8 / YUV420\nSvt[info]: SVT [config]: preset / tune / pred struct \t\t\t\t\t: 4 / PSNR / random access\nSvt[info]: SVT [config]: gop size / mini-gop size / key-frame type \t\t\t: 161 / 16 / key frame\nSvt[info]: SVT [config]: BRC mode / target bitrate (kbps)\t\t\t\t: VBR / 8000 \nSvt[info]: SVT [config]: AQ mode / Variance Boost \t\t\t\t\t: 2 / 0\nSvt[info]: SVT [config]: sharpness / luminance-based QP bias \t\t\t\t: 0 / 0\nSvt[info]: SVT [config]: QP scale compress strength \t\t\t\t\t: 0\nSvt[info]: -------------------------------------------\nOutput #0, matroska, to 'C:\\Users\\Peter\\Desktop\\stuff\\MIUN\\quantitative_research\\video_compression\\compressed_videos\\BVI-HD\\av1\\8\\Toys_1920x1080_30fps_av1.mkv':\n  Metadata:\n    major_brand     : isom\n    minor_version   : 512\n    compatible_brands: isomiso2avc1mp41\n    encoder         : Lavf62.3.100\n  Stream #0:0(und): Video: av1 (AV01 / 0x31305641), yuv420p(tv, progressive), 1920x1080, q=2-31, 8000 kb/s, 30 fps, 1k tbn (default)\n    Metadata:\n      encoder         : Lavc62.11.100 libsvtav1\n      handler_name    : VideoHandler\n      vendor_id       : [0][0][0][0]\n    Side data:\n      cpb: bitrate max/min/avg: 0/0/8000000 buffer size: 8000000 vbv_delay: N/A\nframe=    0 fps=0.0 q=0.0 size=       0KiB time=N/A bitrate=N/A speed=N/A elapsed=0:00:01.05    \nframe=    0 fps=0.0 q=0.0 size=       0KiB time=N/A bitrate=N/A speed=N/A elapsed=0:00:01.64    \nframe=    0 fps=0.0 q=0.0 size=       0KiB time=N/A bitrate=N/A speed=N/A elapsed=0:00:02.21    \nframe=    0 fps=0.0 q=0.0 size=       0KiB time=N/A bitrate=N/A speed=N/A elapsed=0:00:02.83    \nframe=    0 fps=0.0 q=0.0 size=       0KiB time=N/A bitrate=N/A speed=N/A elapsed=0:00:03.42    \nframe=    0 fps=0.0 q=0.0 size=       0KiB time=N/A bitrate=N/A speed=N/A elapsed=0:00:03.94    \nframe=    0 fps=0.0 q=0.0 size=       0KiB time=N/A bitrate=N/A speed=N/A elapsed=0:00:04.52    \nframe=    1 fps=0.2 q=12.0 size=       1KiB time=00:00:00.00 bitrate=N/A speed=   0x elapsed=0:00:05.08    \nframe=    1 fps=0.2 q=12.0 size=       1KiB time=00:00:00.00 bitrate=N/A speed=   0x elapsed=0:00:05.63    \nframe=    1 fps=0.2 q=12.0 size=       1KiB time=00:00:00.00 bitrate=N/A speed=   0x elapsed=0:00:06.19    \nframe=    1 fps=0.1 q=12.0 size=       1KiB time=00:00:00.00 bitrate=N/A speed=   0x elapsed=0:00:06.74    \nframe=    5 fps=0.7 q=24.0 size=       1KiB time=00:00:00.13 bitrate=  42.8kbits/s speed=0.0182x elapsed=0:00:07.31    \nframe=    8 fps=1.0 q=27.0 size=       1KiB time=00:00:00.23 bitrate=  24.4kbits/s speed=0.0296x elapsed=0:00:07.89    \nframe=   10 fps=1.2 q=27.0 size=       1KiB time=00:00:00.30 bitrate=  19.0kbits/s speed=0.0356x elapsed=0:00:08.43    \nframe=   13 fps=1.4 q=21.0 size=       1KiB time=00:00:00.36 bitrate=  15.6kbits/s speed=0.0408x elapsed=0:00:08.98    \nframe=   17 fps=1.8 q=13.0 size=       1KiB time=00:00:00.53 bitrate=  10.7kbits/s speed=0.0559x elapsed=0:00:09.53    \nframe=   21 fps=2.1 q=25.0 size=       1KiB time=00:00:00.63 bitrate=   9.0kbits/s speed=0.063x elapsed=0:00:10.05    \nframe=   23 fps=2.2 q=21.0 size=       1KiB time=00:00:00.73 bitrate=   7.8kbits/s speed=0.0689x elapsed=0:00:10.63    \nframe=   26 fps=2.3 q=27.0 size=       1KiB time=00:00:00.83 bitrate=   6.8kbits/s speed=0.0746x elapsed=0:00:11.16    \nframe=   29 fps=2.5 q=21.0 size=       1KiB time=00:00:00.93 bitrate=   6.1kbits/s speed=0.0798x elapsed=0:00:11.69    \nframe=   35 fps=2.9 q=26.0 size=       1KiB time=00:00:01.13 bitrate=   5.0kbits/s speed=0.0926x elapsed=0:00:12.24    \nframe=   38 fps=3.0 q=24.0 size=       1KiB time=00:00:01.23 bitrate=   4.6kbits/s speed=0.0964x elapsed=0:00:12.79    \nframe=   41 fps=3.1 q=21.0 size=       1KiB time=00:00:01.33 bitrate=   4.3kbits/s speed= 0.1x elapsed=0:00:13.32    \nframe=   43 fps=3.1 q=24.0 size=       1KiB time=00:00:01.40 bitrate=   4.1kbits/s speed=0.101x elapsed=0:00:13.89    \nframe=   48 fps=3.3 q=26.0 size=       1KiB time=00:00:01.56 bitrate=   3.6kbits/s speed=0.109x elapsed=0:00:14.42    \nframe=   51 fps=3.4 q=26.0 size=       1KiB time=00:00:01.66 bitrate=   3.4kbits/s speed=0.112x elapsed=0:00:14.94    \nframe=   57 fps=3.7 q=20.0 size=       1KiB time=00:00:01.80 bitrate=   3.2kbits/s speed=0.116x elapsed=0:00:15.49    \nframe=   57 fps=3.5 q=20.0 size=       1KiB time=00:00:01.86 bitrate=   3.1kbits/s speed=0.116x elapsed=0:00:16.08    \nframe=   61 fps=3.7 q=20.0 size=       1KiB time=00:00:02.00 bitrate=   2.9kbits/s speed=0.12x elapsed=0:00:16.61    \nframe=   65 fps=3.8 q=12.0 size=       1KiB time=00:00:02.13 bitrate=   2.7kbits/s speed=0.124x elapsed=0:00:17.18    \nframe=   69 fps=3.9 q=24.0 size=       1KiB time=00:00:02.26 bitrate=   2.5kbits/s speed=0.128x elapsed=0:00:17.71    \nframe=   73 fps=4.0 q=20.0 size=       1KiB time=00:00:02.40 bitrate=   2.4kbits/s speed=0.131x elapsed=0:00:18.26    \nframe=   75 fps=4.0 q=24.0 size=       1KiB time=00:00:02.46 bitrate=   2.3kbits/s speed=0.131x elapsed=0:00:18.79    \nframe=   77 fps=4.0 q=20.0 size=       1KiB time=00:00:02.53 bitrate=   2.3kbits/s speed=0.131x elapsed=0:00:19.34    \nframe=   81 fps=4.1 q=12.0 size=       1KiB time=00:00:02.66 bitrate=   2.1kbits/s speed=0.134x elapsed=0:00:19.88    \nframe=   87 fps=4.3 q=26.0 size=       1KiB time=00:00:02.86 bitrate=   2.0kbits/s speed=0.14x elapsed=0:00:20.40    \nframe=   89 fps=4.3 q=20.0 size=       1KiB time=00:00:02.93 bitrate=   1.9kbits/s speed=0.14x elapsed=0:00:20.93    \nframe=   93 fps=4.3 q=21.0 size=       1KiB time=00:00:03.06 bitrate=   1.9kbits/s speed=0.143x elapsed=0:00:21.46    \nframe=   97 fps=4.4 q=12.0 size=       1KiB time=00:00:03.20 bitrate=   1.8kbits/s speed=0.145x elapsed=0:00:22.05    \nframe=  101 fps=4.5 q=25.0 size=       1KiB time=00:00:03.33 bitrate=   1.7kbits/s speed=0.147x elapsed=0:00:22.60    \nframe=  105 fps=4.5 q=21.0 size=       1KiB time=00:00:03.46 bitrate=   1.6kbits/s speed=0.15x elapsed=0:00:23.11    \nframe=  107 fps=4.5 q=25.0 size=       1KiB time=00:00:03.53 bitrate=   1.6kbits/s speed=0.149x elapsed=0:00:23.64    \nframe=  111 fps=4.6 q=25.0 size=       1KiB time=00:00:03.66 bitrate=   1.6kbits/s speed=0.151x elapsed=0:00:24.21    \nframe=  115 fps=4.6 q=27.0 size=       1KiB time=00:00:03.80 bitrate=   1.5kbits/s speed=0.153x elapsed=0:00:24.76    \nframe=  121 fps=4.8 q=21.0 size=       1KiB time=00:00:04.00 bitrate=   1.4kbits/s speed=0.158x elapsed=0:00:25.29    \nframe=  121 fps=4.7 q=21.0 size=       1KiB time=00:00:04.00 bitrate=   1.4kbits/s speed=0.155x elapsed=0:00:25.81    \nframe=  125 fps=4.7 q=25.0 size=       1KiB time=00:00:04.13 bitrate=   1.4kbits/s speed=0.157x elapsed=0:00:26.35    \nframe=  133 fps=4.9 q=29.0 size=       1KiB time=00:00:04.40 bitrate=   1.3kbits/s speed=0.164x elapsed=0:00:26.89    \nframe=  137 fps=5.0 q=25.0 size=       1KiB time=00:00:04.53 bitrate=   1.3kbits/s speed=0.165x elapsed=0:00:27.41    \nframe=  139 fps=5.0 q=29.0 size=       1KiB time=00:00:04.60 bitrate=   1.2kbits/s speed=0.164x elapsed=0:00:27.96    \n[out#0/matroska @ 00000175f5b80c00] video:4797KiB audio:0KiB subtitle:0KiB other streams:0KiB global headers:0KiB muxing overhead: 0.029968%\nframe=  150 fps=5.3 q=29.0 Lsize=    4798KiB time=00:00:04.96 bitrate=7914.2kbits/s speed=0.175x elapsed=0:00:28.45    \n",
  "seconds": 29.054906129837036,
  "probe_out": {}
}